<svg width="83" height="61" viewBox="0 0 83 61" fill="none" xmlns="http://www.w3.org/2000/svg">
<path fill-rule="evenodd" clip-rule="evenodd" d="M54.7035 42.1371C70.6106 57.6996 89.8421 44.2653 79.0218 22.7498C72.5239 9.8291 68.8745 11.8514 64.057 14.5209C60.8523 16.2967 57.1307 18.3589 51.71 16.4995C48.8968 15.5346 44.722 13.4724 40.4219 11.3484C23.9799 3.22697 5.70536 -5.79968 54.7035 42.1371ZM74.1948 32.863C74.1948 28.997 71.0608 25.863 67.1948 25.863C63.3288 25.863 58 28.997 58 32.863C58 36.729 63.3288 39.863 67.1948 39.863C71.0608 39.863 74.1948 36.729 74.1948 32.863Z" fill="#000"/>
<path fill-rule="evenodd" clip-rule="evenodd" d="M27.8698 21.8099C10.932 7.37606 -7.33196 22.0988 4.93977 42.8209C12.3093 55.265 15.8113 52.997 20.4342 50.0031C23.5094 48.0115 27.0806 45.6987 32.6162 47.1816C35.489 47.9511 39.7955 49.7218 44.2313 51.5456C61.1919 58.5193 80.0431 66.2702 27.8698 21.8099ZM9.06118 32.4002C9.32656 36.2571 12.6683 39.1685 16.5252 38.9032C20.3821 38.6378 23.7654 32.2359 23.5 28.379C23.2346 24.5222 19.421 24.6708 15.5641 24.9362C11.7073 25.2016 8.7958 28.5433 9.06118 32.4002Z" fill="#000"/>
</svg>
