<?xml version="1.0" encoding="UTF-8"?>
<svg   viewBox="0 0 1200 800"  xmlns="http://www.w3.org/2000/svg">
<style>
  svg { transition: transform 0.2s cubic-bezier(0.25, 1, 0.5, 1); }
  @media (hover: hover) { svg:hover { transform: scale(1.1); } }
  * { fill: currentColor !important; stroke: none !important; }
</style>





  <rect width="1200" height="800" />

  <!-- subtle grid -->
  <g opacity="0.18"  stroke-width="1">
    <path d="M 0 80 L 400.00 80.00 L 800.00 80.00 L 1200.00 80.00"/>
    <path d="M 0 160 L 400.00 160.00 L 800.00 160.00 L 1200.00 160.00"/>
    <path d="M 0 240 L 400.00 240.00 L 800.00 240.00 L 1200.00 240.00"/>
    <path d="M 0 320 L 400.00 320.00 L 800.00 320.00 L 1200.00 320.00"/>
    <path d="M 0 400 L 400.00 400.00 L 800.00 400.00 L 1200.00 400.00"/>
    <path d="M 0 480 L 400.00 480.00 L 800.00 480.00 L 1200.00 480.00"/>
    <path d="M 0 560 L 400.00 560.00 L 800.00 560.00 L 1200.00 560.00"/>
    <path d="M 0 640 L 400.00 640.00 L 800.00 640.00 L 1200.00 640.00"/>
    <path d="M 0 720 L 400.00 720.00 L 800.00 720.00 L 1200.00 720.00"/>

    <path d="M 120 0 L 120.00 266.67 L 120.00 533.33 L 120.00 800.00"/>
    <path d="M 240 0 L 240.00 266.67 L 240.00 533.33 L 240.00 800.00"/>
    <path d="M 360 0 L 360.00 266.67 L 360.00 533.33 L 360.00 800.00"/>
    <path d="M 480 0 L 480.00 266.67 L 480.00 533.33 L 480.00 800.00"/>
    <path d="M 600 0 L 600.00 266.67 L 600.00 533.33 L 600.00 800.00"/>
    <path d="M 720 0 L 720.00 266.67 L 720.00 533.33 L 720.00 800.00"/>
    <path d="M 840 0 L 840.00 266.67 L 840.00 533.33 L 840.00 800.00"/>
    <path d="M 960 0 L 960.00 266.67 L 960.00 533.33 L 960.00 800.00"/>
    <path d="M 1080 0 L 1080.00 266.67 L 1080.00 533.33 L 1080.00 800.00"/>
  </g>

  <!-- main frame -->
  <rect x="190" y="150" width="820" height="500"  stroke-width="10"/>
  <rect x="215" y="175" width="770" height="450"  stroke-width="2" opacity="0.35"/>

  <!-- UI blocks -->
  <rect x="260" y="220" width="520" height="70"  stroke-width="6"/>
  <rect x="260" y="320" width="400" height="60"  stroke-width="6"/>
  <rect x="260" y="410" width="600" height="70"  stroke-width="6"/>

  <!-- code-ish lines -->
  <g opacity="0.6"  stroke-width="4">
    <path d="M 830 235 L 871.67 235.00 L 913.33 235.00 L 955.00 235.00"/>
    <path d="M 830 265 L 863.33 265.00 L 896.67 265.00 L 930.00 265.00"/>
    <path d="M 690 340 L 778.33 340.00 L 866.67 340.00 L 955.00 340.00"/>
    <path d="M 690 370 L 765.00 370.00 L 840.00 370.00 L 915.00 370.00"/>
    <path d="M 880 425 L 905.00 425.00 L 930.00 425.00 L 955.00 425.00"/>
    <path d="M 880 455 L 898.33 455.00 L 916.67 455.00 L 935.00 455.00"/>
  </g>

  <!-- arrows / flow -->
  <g  stroke-width="6" >
    <path d="M 310 520 L 466.67 520.00 L 623.33 520.00 L 780.00 520.00"/>
    <path d="M 780 520 L 768.33 511.67 L 756.67 503.33 L 745.00 495.00"/>
    <path d="M 780 520 L 768.33 528.33 L 756.67 536.67 L 745.00 545.00"/>

    <path d="M 950 520 L 950.00 441.67 L 950.00 363.33 L 950.00 285.00"/>
    <path d="M 950 285 L 941.67 296.67 L 933.33 308.33 L 925.00 320.00"/>
    <path d="M 950 285 L 958.33 296.67 L 966.67 308.33 L 975.00 320.00"/>
  </g>

  <!-- accent (CTA red) -->
  <rect x="260" y="520" width="40" height="40" />

  <!-- vignette -->
  <defs>
    <radialGradient id="v" cx="0" cy="0" r="1" gradientUnits="userSpaceOnUse" gradientTransform="translate(600 200) rotate(90) scale(700 1100)">
      <stop stop-color="#000000" stop-opacity="0.08"/>
      <stop offset="1" stop-color="#000000" stop-opacity="0"/>
    </radialGradient>
  </defs>
  <rect x="0" y="0" width="1200" height="800" />
</svg>
