<svg   viewBox="0 0 83 61"  xmlns="http://www.w3.org/2000/svg">
<style>
  svg { transition: transform 0.2s cubic-bezier(0.25, 1, 0.5, 1); }
  @media (hover: hover) { svg:hover { transform: scale(1.1); } }
  * { fill: currentColor !important; stroke: none !important; }
</style>





<path fill-rule="evenodd" clip-rule="evenodd" d="M 54.7035 42.1371 L 70.48 48.81 L 81.06 40.80 L 79.02 22.75 L 73.32 14.28 L 68.63 12.60 L 64.06 14.52 L 60.64 16.24 L 56.61 17.21 L 51.71 16.50 L 48.49 15.21 L 44.63 13.41 L 40.42 11.35 L 25.93 5.07 L 25.57 11.04 L 54.70 42.14 L 54.70 42.14 L 54.70 42.14 L 54.70 42.14 M 74.1948 32.863 L 73.24 29.33 L 70.73 26.82 L 67.19 25.86 L 63.09 26.82 L 59.52 29.33 L 58.00 32.86 L 59.52 36.40 L 63.09 38.91 L 67.19 39.86 L 70.73 38.91 L 73.24 36.40 L 74.19 32.86 L 74.19 32.86 L 74.19 32.86 L 74.19 32.86" />
<path fill-rule="evenodd" clip-rule="evenodd" d="M 27.8698 21.8099 L 11.67 16.24 L 1.67 24.96 L 4.94 42.82 L 11.20 50.88 L 16.00 52.24 L 20.43 50.00 L 23.73 48.06 L 27.68 46.81 L 32.62 47.18 L 35.92 48.25 L 39.89 49.77 L 44.23 51.55 L 59.12 56.82 L 59.07 50.83 L 27.87 21.81 L 27.87 21.81 L 27.87 21.81 L 27.87 21.81 M 9.0612 32.4002 L 10.26 35.86 L 12.93 38.19 L 16.53 38.90 L 20.11 36.91 L 22.67 32.76 L 23.50 28.38 L 22.18 25.71 L 19.28 24.85 L 15.56 24.94 L 12.11 26.13 L 9.77 28.81 L 9.06 32.40 L 9.06 32.40 L 9.06 32.40 L 9.06 32.40" />
</svg>
